<mxfile host="app.diagrams.net" modified="2023-09-06T09:58:00.499Z" agent="Mozilla/5.0 (Macintosh; Intel Mac OS X 10_15_7) AppleWebKit/537.36 (KHTML, like Gecko) Chrome/116.0.0.0 Safari/537.36" version="21.7.2" etag="yCXyT4aw09fL7yzWtp32" type="github">
  <diagram name="第 1 页" id="jS0GgTDtQdnwckiMGlz2">
    <mxGraphModel>
      <root>
        <mxCell id="0" />
        <mxCell id="1" parent="0" />
      </root>
    </mxGraphModel>
  </diagram>
</mxfile>
